<svg width="156" height="44" viewBox="0 0 156 44" fill="none" xmlns="http://www.w3.org/2000/svg">
<path d="M92.912 9.8V35H91.076V23.012H74.228V35H72.392V9.8H74.228V21.392H91.076V9.8H92.912ZM119.1 33.344V35H101.712V9.8H118.56V11.456H103.548V21.392H116.976V23.012H103.548V33.344H119.1ZM149.626 35L149.59 13.436L139.042 31.652H138.142L127.594 13.508V35H125.794V9.8H127.342L138.61 29.276L149.878 9.8H151.39L151.426 35H149.626Z" fill="black"/>
<ellipse cx="38" cy="16.7674" rx="10" ry="8.76744" fill="white" stroke="black"/>
<ellipse cx="58" cy="16.7674" rx="10" ry="8.76744" fill="white" stroke="black"/>
<path d="M48 37L31.9167 23.8488L64.0833 23.8488L48 37Z" fill="white" stroke="black"/>
<path d="M48 16.7675L52.3301 23.8489H43.6699L48 16.7675Z" fill="white" stroke="black"/>
<path d="M19.368 22.004C21.168 22.34 22.536 23.048 23.472 24.128C24.432 25.208 24.912 26.612 24.912 28.34C24.912 30.476 24.132 32.12 22.572 33.272C21.012 34.424 18.696 35 15.624 35H4.392V9.8H14.904C17.64 9.8 19.764 10.364 21.276 11.492C22.812 12.596 23.58 14.18 23.58 16.244C23.58 17.684 23.196 18.896 22.428 19.88C21.684 20.864 20.664 21.572 19.368 22.004ZM6.228 11.384V21.428H14.832C17.04 21.428 18.732 21.008 19.908 20.168C21.108 19.304 21.708 18.044 21.708 16.388C21.708 14.756 21.108 13.52 19.908 12.68C18.732 11.816 17.04 11.384 14.832 11.384H6.228ZM15.624 33.416C18.072 33.416 19.92 32.996 21.168 32.156C22.44 31.292 23.076 29.972 23.076 28.196C23.076 26.42 22.44 25.112 21.168 24.272C19.92 23.432 18.072 23.012 15.624 23.012H6.228V33.416H15.624Z" fill="black"/>
<ellipse cx="48.5" cy="23.5" rx="6.5" ry="7.5" fill="white"/>
<path d="M31 22.3946C31 22.3946 60.1798 20.6445 61.5592 21.0653C62.9387 21.4861 60.6396 22.7484 60.6396 24.0107C60.6396 25.2731 37.0984 27 37.0984 27L35.5 26L36.5 27L31 22.3946Z" fill="white"/>
<path d="M59.7273 23H62.6364L63.5 23.5L62.5 24.5L61.014 25H59L59.7273 23Z" fill="white"/>
<path d="M63 24L63.5 23.5H63V24Z" fill="white"/>
<path d="M61 25L64 22.5" stroke="white"/>
</svg>
